<mxfile host="app.diagrams.net" modified="2024-01-06T00:32:35.206Z" agent="Mozilla/5.0 (Windows NT 10.0; Win64; x64; rv:121.0) Gecko/20100101 Firefox/121.0" etag="07pzKwdUfcr8gdEnSBW8" version="22.1.16" type="device">
  <diagram name="PÃ¡gina-1" id="Dk4c0fEfs0IA9ifrQuwE">
    <mxGraphModel dx="1194" dy="716" grid="1" gridSize="10" guides="1" tooltips="1" connect="1" arrows="1" fold="1" page="1" pageScale="1" pageWidth="827" pageHeight="1169" math="0" shadow="0">
      <root>
        <mxCell id="0" />
        <mxCell id="1" parent="0" />
        <mxCell id="o4Y73pE1BpLqy18uyFmv-35" value="" style="rounded=0;whiteSpace=wrap;html=1;strokeWidth=4;" vertex="1" parent="1">
          <mxGeometry x="354" y="168" width="70" height="40" as="geometry" />
        </mxCell>
        <mxCell id="o4Y73pE1BpLqy18uyFmv-19" value="" style="rounded=0;whiteSpace=wrap;html=1;strokeWidth=4;dashed=1;strokeColor=#7EA6E0;" vertex="1" parent="1">
          <mxGeometry x="540" y="270" width="310" height="300" as="geometry" />
        </mxCell>
        <mxCell id="o4Y73pE1BpLqy18uyFmv-15" value="" style="rounded=0;whiteSpace=wrap;html=1;strokeWidth=4;dashed=1;strokeColor=#7EA6E0;" vertex="1" parent="1">
          <mxGeometry x="20" y="270" width="310" height="300" as="geometry" />
        </mxCell>
        <mxCell id="o4Y73pE1BpLqy18uyFmv-1" value="" style="image;html=1;image=img/lib/clip_art/computers/Netbook_128x128.png" vertex="1" parent="1">
          <mxGeometry x="80" y="310" width="80" height="80" as="geometry" />
        </mxCell>
        <mxCell id="o4Y73pE1BpLqy18uyFmv-2" value="" style="image;html=1;image=img/lib/clip_art/computers/Netbook_128x128.png" vertex="1" parent="1">
          <mxGeometry x="190" y="310" width="80" height="80" as="geometry" />
        </mxCell>
        <mxCell id="o4Y73pE1BpLqy18uyFmv-3" value="" style="image;html=1;image=img/lib/clip_art/computers/Netbook_128x128.png" vertex="1" parent="1">
          <mxGeometry x="590" y="310" width="80" height="80" as="geometry" />
        </mxCell>
        <mxCell id="o4Y73pE1BpLqy18uyFmv-4" value="" style="image;html=1;image=img/lib/clip_art/computers/Netbook_128x128.png" vertex="1" parent="1">
          <mxGeometry x="710" y="310" width="80" height="80" as="geometry" />
        </mxCell>
        <mxCell id="o4Y73pE1BpLqy18uyFmv-7" value="" style="shape=mxgraph.cisco.misc.bridge;html=1;pointerEvents=1;dashed=0;strokeWidth=2;verticalLabelPosition=bottom;verticalAlign=top;align=center;outlineConnect=0;fillColor=#bac8d3;strokeColor=#23445d;" vertex="1" parent="1">
          <mxGeometry x="390" y="322" width="74" height="56" as="geometry" />
        </mxCell>
        <mxCell id="o4Y73pE1BpLqy18uyFmv-8" value="" style="endArrow=none;html=1;rounded=0;strokeWidth=4;entryX=0;entryY=0.679;entryDx=0;entryDy=0;entryPerimeter=0;" edge="1" parent="1" target="o4Y73pE1BpLqy18uyFmv-7">
          <mxGeometry width="50" height="50" relative="1" as="geometry">
            <mxPoint x="120" y="440" as="sourcePoint" />
            <mxPoint x="360" y="360" as="targetPoint" />
            <Array as="points">
              <mxPoint x="120" y="480" />
              <mxPoint x="360" y="480" />
              <mxPoint x="360" y="360" />
            </Array>
          </mxGeometry>
        </mxCell>
        <mxCell id="o4Y73pE1BpLqy18uyFmv-9" value="" style="endArrow=none;html=1;rounded=0;strokeWidth=4;" edge="1" parent="1">
          <mxGeometry width="50" height="50" relative="1" as="geometry">
            <mxPoint x="241" y="480" as="sourcePoint" />
            <mxPoint x="241" y="440" as="targetPoint" />
          </mxGeometry>
        </mxCell>
        <mxCell id="o4Y73pE1BpLqy18uyFmv-10" value="" style="endArrow=none;html=1;rounded=0;strokeWidth=4;" edge="1" parent="1">
          <mxGeometry width="50" height="50" relative="1" as="geometry">
            <mxPoint x="641" y="480" as="sourcePoint" />
            <mxPoint x="641" y="440" as="targetPoint" />
          </mxGeometry>
        </mxCell>
        <mxCell id="o4Y73pE1BpLqy18uyFmv-11" value="MAC 1" style="text;html=1;strokeColor=none;fillColor=none;align=center;verticalAlign=middle;whiteSpace=wrap;rounded=0;fontStyle=1;fontSize=16;" vertex="1" parent="1">
          <mxGeometry x="90" y="400" width="60" height="30" as="geometry" />
        </mxCell>
        <mxCell id="o4Y73pE1BpLqy18uyFmv-12" value="MAC 2" style="text;html=1;strokeColor=none;fillColor=none;align=center;verticalAlign=middle;whiteSpace=wrap;rounded=0;fontStyle=1;fontSize=16;" vertex="1" parent="1">
          <mxGeometry x="210" y="400" width="60" height="30" as="geometry" />
        </mxCell>
        <mxCell id="o4Y73pE1BpLqy18uyFmv-13" value="MAC 3" style="text;html=1;strokeColor=none;fillColor=none;align=center;verticalAlign=middle;whiteSpace=wrap;rounded=0;fontStyle=1;fontSize=16;" vertex="1" parent="1">
          <mxGeometry x="610" y="400" width="60" height="30" as="geometry" />
        </mxCell>
        <mxCell id="o4Y73pE1BpLqy18uyFmv-14" value="MAC 4" style="text;html=1;strokeColor=none;fillColor=none;align=center;verticalAlign=middle;whiteSpace=wrap;rounded=0;fontStyle=1;fontSize=16;" vertex="1" parent="1">
          <mxGeometry x="730" y="400" width="60" height="30" as="geometry" />
        </mxCell>
        <mxCell id="o4Y73pE1BpLqy18uyFmv-18" value="" style="endArrow=none;html=1;rounded=0;strokeWidth=4;" edge="1" parent="1">
          <mxGeometry width="50" height="50" relative="1" as="geometry">
            <mxPoint x="470" y="360" as="sourcePoint" />
            <mxPoint x="760" y="440" as="targetPoint" />
            <Array as="points">
              <mxPoint x="500" y="360" />
              <mxPoint x="500" y="480" />
              <mxPoint x="760" y="480" />
            </Array>
          </mxGeometry>
        </mxCell>
        <mxCell id="o4Y73pE1BpLqy18uyFmv-20" value="SEGMENTO 01" style="text;html=1;fillColor=none;align=center;verticalAlign=middle;whiteSpace=wrap;rounded=0;fontStyle=1;fontSize=16;fontColor=#66B2FF;" vertex="1" parent="1">
          <mxGeometry x="112.5" y="520" width="125" height="30" as="geometry" />
        </mxCell>
        <mxCell id="o4Y73pE1BpLqy18uyFmv-21" value="SEGMENTO 02" style="text;html=1;strokeColor=none;fillColor=none;align=center;verticalAlign=middle;whiteSpace=wrap;rounded=0;fontStyle=1;fontSize=16;fontColor=#66B2FF;" vertex="1" parent="1">
          <mxGeometry x="632.5" y="520" width="125" height="30" as="geometry" />
        </mxCell>
        <mxCell id="o4Y73pE1BpLqy18uyFmv-22" value="HOST 01" style="text;html=1;fillColor=none;align=center;verticalAlign=middle;whiteSpace=wrap;rounded=0;fontStyle=1;fontSize=16;fontColor=#66B2FF;" vertex="1" parent="1">
          <mxGeometry x="35" y="280" width="125" height="30" as="geometry" />
        </mxCell>
        <mxCell id="o4Y73pE1BpLqy18uyFmv-23" value="HOST 02" style="text;html=1;fillColor=none;align=center;verticalAlign=middle;whiteSpace=wrap;rounded=0;fontStyle=1;fontSize=16;fontColor=#66B2FF;" vertex="1" parent="1">
          <mxGeometry x="145" y="280" width="125" height="30" as="geometry" />
        </mxCell>
        <mxCell id="o4Y73pE1BpLqy18uyFmv-24" value="HOST 04" style="text;html=1;fillColor=none;align=center;verticalAlign=middle;whiteSpace=wrap;rounded=0;fontStyle=1;fontSize=16;fontColor=#66B2FF;" vertex="1" parent="1">
          <mxGeometry x="680" y="289" width="125" height="30" as="geometry" />
        </mxCell>
        <mxCell id="o4Y73pE1BpLqy18uyFmv-25" value="HOST 03" style="text;html=1;fillColor=none;align=center;verticalAlign=middle;whiteSpace=wrap;rounded=0;fontStyle=1;fontSize=16;fontColor=#66B2FF;" vertex="1" parent="1">
          <mxGeometry x="559" y="289" width="125" height="30" as="geometry" />
        </mxCell>
        <mxCell id="o4Y73pE1BpLqy18uyFmv-26" value="BRIDGE" style="text;html=1;fillColor=none;align=center;verticalAlign=middle;whiteSpace=wrap;rounded=0;fontStyle=1;fontSize=16;fontColor=#FF9999;" vertex="1" parent="1">
          <mxGeometry x="369" y="407" width="125" height="30" as="geometry" />
        </mxCell>
        <mxCell id="o4Y73pE1BpLqy18uyFmv-28" value="" style="rounded=0;whiteSpace=wrap;html=1;strokeWidth=4;" vertex="1" parent="1">
          <mxGeometry x="354" y="80" width="70" height="40" as="geometry" />
        </mxCell>
        <mxCell id="o4Y73pE1BpLqy18uyFmv-29" value="2" style="text;html=1;strokeColor=none;fillColor=none;align=center;verticalAlign=middle;whiteSpace=wrap;rounded=0;fontSize=16;fontStyle=1" vertex="1" parent="1">
          <mxGeometry x="359" y="173" width="60" height="30" as="geometry" />
        </mxCell>
        <mxCell id="o4Y73pE1BpLqy18uyFmv-30" value="A" style="text;html=1;strokeColor=none;fillColor=none;align=center;verticalAlign=middle;whiteSpace=wrap;rounded=0;fontSize=16;fontStyle=1" vertex="1" parent="1">
          <mxGeometry x="359" y="85" width="60" height="30" as="geometry" />
        </mxCell>
        <mxCell id="o4Y73pE1BpLqy18uyFmv-32" value="" style="rounded=0;whiteSpace=wrap;html=1;strokeWidth=4;" vertex="1" parent="1">
          <mxGeometry x="428" y="80" width="70" height="40" as="geometry" />
        </mxCell>
        <mxCell id="o4Y73pE1BpLqy18uyFmv-33" value="" style="rounded=0;whiteSpace=wrap;html=1;strokeWidth=4;" vertex="1" parent="1">
          <mxGeometry x="354" y="124" width="70" height="40" as="geometry" />
        </mxCell>
        <mxCell id="o4Y73pE1BpLqy18uyFmv-34" value="" style="rounded=0;whiteSpace=wrap;html=1;strokeWidth=4;" vertex="1" parent="1">
          <mxGeometry x="428" y="124" width="70" height="40" as="geometry" />
        </mxCell>
        <mxCell id="o4Y73pE1BpLqy18uyFmv-36" value="" style="rounded=0;whiteSpace=wrap;html=1;strokeWidth=4;" vertex="1" parent="1">
          <mxGeometry x="428" y="168" width="70" height="40" as="geometry" />
        </mxCell>
        <mxCell id="o4Y73pE1BpLqy18uyFmv-37" value="3" style="text;html=1;strokeColor=none;fillColor=none;align=center;verticalAlign=middle;whiteSpace=wrap;rounded=0;fontSize=16;fontStyle=1" vertex="1" parent="1">
          <mxGeometry x="432" y="129" width="60" height="30" as="geometry" />
        </mxCell>
        <mxCell id="o4Y73pE1BpLqy18uyFmv-38" value="1" style="text;html=1;strokeColor=none;fillColor=none;align=center;verticalAlign=middle;whiteSpace=wrap;rounded=0;fontSize=16;fontStyle=1" vertex="1" parent="1">
          <mxGeometry x="359" y="129" width="60" height="30" as="geometry" />
        </mxCell>
        <mxCell id="o4Y73pE1BpLqy18uyFmv-39" value="B" style="text;html=1;strokeColor=none;fillColor=none;align=center;verticalAlign=middle;whiteSpace=wrap;rounded=0;fontSize=16;fontStyle=1" vertex="1" parent="1">
          <mxGeometry x="432" y="84" width="60" height="30" as="geometry" />
        </mxCell>
        <mxCell id="o4Y73pE1BpLqy18uyFmv-40" value="4" style="text;html=1;strokeColor=none;fillColor=none;align=center;verticalAlign=middle;whiteSpace=wrap;rounded=0;fontSize=16;fontStyle=1" vertex="1" parent="1">
          <mxGeometry x="428" y="173" width="60" height="30" as="geometry" />
        </mxCell>
        <mxCell id="o4Y73pE1BpLqy18uyFmv-41" value="PORTA" style="text;html=1;strokeColor=none;fillColor=none;align=center;verticalAlign=middle;whiteSpace=wrap;rounded=0;fontSize=16;fontStyle=1" vertex="1" parent="1">
          <mxGeometry x="397" y="43" width="60" height="30" as="geometry" />
        </mxCell>
        <mxCell id="o4Y73pE1BpLqy18uyFmv-42" value="MAC" style="text;html=1;strokeColor=none;fillColor=none;align=center;verticalAlign=middle;whiteSpace=wrap;rounded=0;fontSize=16;fontStyle=1;rotation=-90;" vertex="1" parent="1">
          <mxGeometry x="290" y="124" width="60" height="30" as="geometry" />
        </mxCell>
        <mxCell id="o4Y73pE1BpLqy18uyFmv-43" value="" style="shape=flexArrow;endArrow=classic;html=1;rounded=0;endWidth=26;endSize=7.33;width=14;fillColor=#fad7ac;strokeColor=#b46504;strokeWidth=4;" edge="1" parent="1">
          <mxGeometry width="50" height="50" relative="1" as="geometry">
            <mxPoint x="430" y="300" as="sourcePoint" />
            <mxPoint x="432" y="240" as="targetPoint" />
          </mxGeometry>
        </mxCell>
        <mxCell id="o4Y73pE1BpLqy18uyFmv-45" value="" style="endArrow=none;html=1;rounded=0;strokeWidth=4;dashed=1;strokeColor=#99CCFF;" edge="1" parent="1">
          <mxGeometry width="50" height="50" relative="1" as="geometry">
            <mxPoint x="20" y="640" as="sourcePoint" />
            <mxPoint x="140" y="640" as="targetPoint" />
          </mxGeometry>
        </mxCell>
        <mxCell id="o4Y73pE1BpLqy18uyFmv-46" value="DomÃ­nios de ColisÃ£o" style="text;html=1;strokeColor=none;fillColor=none;align=center;verticalAlign=middle;whiteSpace=wrap;rounded=0;fontSize=16;fontStyle=1" vertex="1" parent="1">
          <mxGeometry x="150" y="620" width="170" height="30" as="geometry" />
        </mxCell>
      </root>
    </mxGraphModel>
  </diagram>
</mxfile>
